<svg width="32" height="32" viewBox="0 0 32 32" fill="none" xmlns="http://www.w3.org/2000/svg">
<path d="M22.1532 2.66669H9.8455C7.94201 2.66872 6.11706 3.42579 4.77109 4.77176C3.42511 6.11773 2.66805 7.94268 2.66602 9.84617V22.1539C2.66805 24.0574 3.42511 25.8823 4.77109 27.2283C6.11706 28.5743 7.94201 29.3313 9.8455 29.3334H22.1532C24.0567 29.3313 25.8816 28.5743 27.2276 27.2283C28.5736 25.8823 29.3306 24.0574 29.3327 22.1539V9.84617C29.3306 7.94268 28.5736 6.11773 27.2276 4.77176C25.8816 3.42579 24.0567 2.66872 22.1532 2.66669ZM15.9993 22.1539C14.7822 22.1539 13.5925 21.7929 12.5805 21.1168C11.5685 20.4406 10.7797 19.4795 10.3139 18.355C9.84817 17.2305 9.7263 15.9932 9.96375 14.7995C10.2012 13.6057 10.7873 12.5092 11.6479 11.6486C12.5086 10.788 13.6051 10.2019 14.7988 9.96442C15.9925 9.72697 17.2299 9.84884 18.3543 10.3146C19.4788 10.7804 20.4399 11.5691 21.1161 12.5811C21.7923 13.5931 22.1532 14.7829 22.1532 16C22.1515 17.6316 21.5026 19.1959 20.3489 20.3496C19.1952 21.5033 17.6309 22.1522 15.9993 22.1539ZM23.6917 9.84617C23.3874 9.84617 23.0899 9.75595 22.8369 9.5869C22.5839 9.41785 22.3867 9.17757 22.2703 8.89646C22.1539 8.61534 22.1234 8.30601 22.1828 8.00757C22.2421 7.70914 22.3886 7.43501 22.6038 7.21986C22.819 7.0047 23.0931 6.85817 23.3915 6.79881C23.69 6.73945 23.9993 6.76992 24.2804 6.88636C24.5615 7.0028 24.8018 7.19999 24.9708 7.45299C25.1399 7.70599 25.2301 8.00343 25.2301 8.30771C25.2301 8.71574 25.068 9.10705 24.7795 9.39557C24.491 9.68409 24.0997 9.84617 23.6917 9.84617ZM20.1019 16C20.1019 16.8114 19.8613 17.6046 19.4105 18.2793C18.9597 18.9539 18.319 19.4798 17.5693 19.7903C16.8197 20.1008 15.9948 20.1821 15.199 20.0238C14.4032 19.8655 13.6722 19.4747 13.0984 18.901C12.5246 18.3272 12.1339 17.5962 11.9756 16.8004C11.8173 16.0046 11.8986 15.1797 12.2091 14.43C12.5196 13.6804 13.0454 13.0397 13.7201 12.5889C14.3948 12.1381 15.1879 11.8975 15.9993 11.8975C17.0874 11.8975 18.1309 12.3297 18.9003 13.0991C19.6697 13.8685 20.1019 14.912 20.1019 16Z" fill="#34398B"/>
</svg>

<svg width="28" height="28" viewBox="0 0 28 28" fill="none" xmlns="http://www.w3.org/2000/svg">
<path d="M20.1532 0.666687H7.8455C5.94201 0.668723 4.11706 1.42579 2.77109 2.77176C1.42511 4.11773 0.668052 5.94268 0.666016 7.84617V20.1539C0.668052 22.0574 1.42511 23.8823 2.77109 25.2283C4.11706 26.5743 5.94201 27.3313 7.8455 27.3334H20.1532C22.0567 27.3313 23.8816 26.5743 25.2276 25.2283C26.5736 23.8823 27.3306 22.0574 27.3327 20.1539V7.84617C27.3306 5.94268 26.5736 4.11773 25.2276 2.77176C23.8816 1.42579 22.0567 0.668723 20.1532 0.666687ZM13.9993 20.1539C12.7822 20.1539 11.5925 19.7929 10.5805 19.1168C9.56846 18.4406 8.77971 17.4795 8.31394 16.355C7.84817 15.2305 7.7263 13.9932 7.96375 12.7995C8.2012 11.6057 8.78729 10.5092 9.64792 9.64859C10.5086 8.78796 11.6051 8.20187 12.7988 7.96442C13.9925 7.72697 15.2299 7.84884 16.3543 8.31461C17.4788 8.78038 18.4399 9.56913 19.1161 10.5811C19.7923 11.5931 20.1532 12.7829 20.1532 14C20.1515 15.6316 19.5026 17.1959 18.3489 18.3496C17.1952 19.5033 15.6309 20.1522 13.9993 20.1539ZM21.6917 7.84617C21.3874 7.84617 21.0899 7.75595 20.8369 7.5869C20.5839 7.41785 20.3867 7.17757 20.2703 6.89646C20.1539 6.61534 20.1234 6.30601 20.1828 6.00757C20.2421 5.70914 20.3886 5.43501 20.6038 5.21986C20.819 5.0047 21.0931 4.85817 21.3915 4.79881C21.69 4.73945 21.9993 4.76992 22.2804 4.88636C22.5615 5.0028 22.8018 5.19999 22.9708 5.45299C23.1399 5.70599 23.2301 6.00343 23.2301 6.30771C23.2301 6.71574 23.068 7.10705 22.7795 7.39557C22.491 7.68409 22.0997 7.84617 21.6917 7.84617ZM18.1019 14C18.1019 14.8114 17.8613 15.6046 17.4105 16.2793C16.9597 16.9539 16.319 17.4798 15.5693 17.7903C14.8197 18.1008 13.9948 18.1821 13.199 18.0238C12.4032 17.8655 11.6722 17.4747 11.0984 16.901C10.5246 16.3272 10.1339 15.5962 9.97561 14.8004C9.81732 14.0046 9.89856 13.1797 10.2091 12.43C10.5196 11.6804 11.0454 11.0397 11.7201 10.5889C12.3948 10.1381 13.1879 9.89746 13.9993 9.89746C15.0874 9.89746 16.1309 10.3297 16.9003 11.0991C17.6697 11.8685 18.1019 12.912 18.1019 14Z" fill="#34398B"/>
</svg>
