<svg width="32" height="32" viewBox="0 0 32 32" fill="none" xmlns="http://www.w3.org/2000/svg">
<path d="M22.1532 2.66669H9.8455C7.94201 2.66872 6.11706 3.42579 4.77109 4.77176C3.42511 6.11773 2.66805 7.94268 2.66602 9.84617V22.1539C2.66805 24.0574 3.42511 25.8823 4.77109 27.2283C6.11706 28.5743 7.94201 29.3313 9.8455 29.3334H22.1532C24.0567 29.3313 25.8816 28.5743 27.2276 27.2283C28.5736 25.8823 29.3306 24.0574 29.3327 22.1539V9.84617C29.3306 7.94268 28.5736 6.11773 27.2276 4.77176C25.8816 3.42579 24.0567 2.66872 22.1532 2.66669ZM15.9993 22.1539C14.7822 22.1539 13.5925 21.7929 12.5805 21.1168C11.5685 20.4406 10.7797 19.4795 10.3139 18.355C9.84817 17.2305 9.7263 15.9932 9.96375 14.7995C10.2012 13.6057 10.7873 12.5092 11.6479 11.6486C12.5086 10.788 13.6051 10.2019 14.7988 9.96442C15.9925 9.72697 17.2299 9.84884 18.3543 10.3146C19.4788 10.7804 20.4399 11.5691 21.1161 12.5811C21.7923 13.5931 22.1532 14.7829 22.1532 16C22.1515 17.6316 21.5026 19.1959 20.3489 20.3496C19.1952 21.5033 17.6309 22.1522 15.9993 22.1539ZM23.6917 9.84617C23.3874 9.84617 23.0899 9.75595 22.8369 9.5869C22.5839 9.41785 22.3867 9.17757 22.2703 8.89646C22.1539 8.61534 22.1234 8.30601 22.1828 8.00757C22.2421 7.70914 22.3886 7.43501 22.6038 7.21986C22.819 7.0047 23.0931 6.85817 23.3915 6.79881C23.69 6.73945 23.9993 6.76992 24.2804 6.88636C24.5615 7.0028 24.8018 7.19999 24.9708 7.45299C25.1399 7.70599 25.2301 8.00343 25.2301 8.30771C25.2301 8.71574 25.068 9.10705 24.7795 9.39557C24.491 9.68409 24.0997 9.84617 23.6917 9.84617ZM20.1019 16C20.1019 16.8114 19.8613 17.6046 19.4105 18.2793C18.9597 18.9539 18.319 19.4798 17.5693 19.7903C16.8197 20.1008 15.9948 20.1821 15.199 20.0238C14.4032 19.8655 13.6722 19.4747 13.0984 18.901C12.5246 18.3272 12.1339 17.5962 11.9756 16.8004C11.8173 16.0046 11.8986 15.1797 12.2091 14.43C12.5196 13.6804 13.0454 13.0397 13.7201 12.5889C14.3948 12.1381 15.1879 11.8975 15.9993 11.8975C17.0874 11.8975 18.1309 12.3297 18.9003 13.0991C19.6697 13.8685 20.1019 14.912 20.1019 16Z" fill="#34398B"/>
</svg>
