<svg width="28" height="28" viewBox="0 0 28 28" fill="none" xmlns="http://www.w3.org/2000/svg">
<path d="M20.1532 0.666687H7.8455C5.94201 0.668723 4.11706 1.42579 2.77109 2.77176C1.42511 4.11773 0.668052 5.94268 0.666016 7.84617V20.1539C0.668052 22.0574 1.42511 23.8823 2.77109 25.2283C4.11706 26.5743 5.94201 27.3313 7.8455 27.3334H20.1532C22.0567 27.3313 23.8816 26.5743 25.2276 25.2283C26.5736 23.8823 27.3306 22.0574 27.3327 20.1539V7.84617C27.3306 5.94268 26.5736 4.11773 25.2276 2.77176C23.8816 1.42579 22.0567 0.668723 20.1532 0.666687ZM13.9993 20.1539C12.7822 20.1539 11.5925 19.7929 10.5805 19.1168C9.56846 18.4406 8.77971 17.4795 8.31394 16.355C7.84817 15.2305 7.7263 13.9932 7.96375 12.7995C8.2012 11.6057 8.78729 10.5092 9.64792 9.64859C10.5086 8.78796 11.6051 8.20187 12.7988 7.96442C13.9925 7.72697 15.2299 7.84884 16.3543 8.31461C17.4788 8.78038 18.4399 9.56913 19.1161 10.5811C19.7923 11.5931 20.1532 12.7829 20.1532 14C20.1515 15.6316 19.5026 17.1959 18.3489 18.3496C17.1952 19.5033 15.6309 20.1522 13.9993 20.1539ZM21.6917 7.84617C21.3874 7.84617 21.0899 7.75595 20.8369 7.5869C20.5839 7.41785 20.3867 7.17757 20.2703 6.89646C20.1539 6.61534 20.1234 6.30601 20.1828 6.00757C20.2421 5.70914 20.3886 5.43501 20.6038 5.21986C20.819 5.0047 21.0931 4.85817 21.3915 4.79881C21.69 4.73945 21.9993 4.76992 22.2804 4.88636C22.5615 5.0028 22.8018 5.19999 22.9708 5.45299C23.1399 5.70599 23.2301 6.00343 23.2301 6.30771C23.2301 6.71574 23.068 7.10705 22.7795 7.39557C22.491 7.68409 22.0997 7.84617 21.6917 7.84617ZM18.1019 14C18.1019 14.8114 17.8613 15.6046 17.4105 16.2793C16.9597 16.9539 16.319 17.4798 15.5693 17.7903C14.8197 18.1008 13.9948 18.1821 13.199 18.0238C12.4032 17.8655 11.6722 17.4747 11.0984 16.901C10.5246 16.3272 10.1339 15.5962 9.97561 14.8004C9.81732 14.0046 9.89856 13.1797 10.2091 12.43C10.5196 11.6804 11.0454 11.0397 11.7201 10.5889C12.3948 10.1381 13.1879 9.89746 13.9993 9.89746C15.0874 9.89746 16.1309 10.3297 16.9003 11.0991C17.6697 11.8685 18.1019 12.912 18.1019 14Z" fill="#34398B"/>
</svg>
