<svg width="19" height="23" viewBox="0 0 19 23" fill="none" xmlns="http://www.w3.org/2000/svg">
<path d="M15.77 12.3011C15.7916 10.6201 16.6944 9.02947 18.1265 8.149C17.2231 6.85868 15.7098 6.04058 14.1354 5.99132C12.4561 5.81506 10.8282 6.99615 9.97247 6.99615C9.1002 6.99615 7.7827 6.00882 6.36397 6.03801C4.51472 6.09776 2.79075 7.14914 1.89105 8.76588C-0.0429511 12.1143 1.39964 17.0354 3.25225 19.742C4.17915 21.0673 5.26243 22.5478 6.67988 22.4953C8.06694 22.4377 8.58498 21.6108 10.2593 21.6108C11.918 21.6108 12.4041 22.4953 13.8503 22.4619C15.3387 22.4377 16.2764 21.1306 17.1708 19.7927C17.8368 18.8484 18.3492 17.8047 18.6892 16.7002C16.9401 15.9604 15.772 14.2002 15.77 12.3011Z" fill="white"/>
<path d="M13.0383 4.21132C13.8498 3.23711 14.2496 1.98494 14.1528 0.720703C12.913 0.850924 11.7677 1.44348 10.9452 2.38031C10.141 3.29564 9.72241 4.52579 9.80153 5.7417C11.0418 5.75447 12.2611 5.17798 13.0383 4.21132Z" fill="white"/>
</svg>
