<svg width="25" height="26" viewBox="0 0 25 26" fill="none" xmlns="http://www.w3.org/2000/svg">
<path fill-rule="evenodd" clip-rule="evenodd" d="M1.15602 0.966662C1.03791 1.23416 0.972656 1.56193 0.972656 1.94318V24.0592C0.972656 24.4413 1.03799 24.7691 1.15624 25.0365L13.1902 13.0008L1.15602 0.966662ZM1.85124 25.7557C2.2973 25.9465 2.87916 25.886 3.51365 25.5262L17.6708 17.4814L13.8973 13.7079L1.85124 25.7557ZM18.5732 16.9696L23.0147 14.4462C24.4116 13.6512 24.4116 12.3522 23.0147 11.5582L18.5712 9.03331L14.6043 13.0008L18.5732 16.9696ZM17.6694 8.52089L3.51365 0.477189C2.87913 0.116611 2.29722 0.0564479 1.85116 0.247586L13.8972 12.2937L17.6694 8.52089Z" fill="white"/>
</svg>
