<svg width="76" height="17" viewBox="0 0 76 17" fill="none" xmlns="http://www.w3.org/2000/svg">
<path d="M47.0735 2.20086V4.49188H45.6375V5.99432H47.0735V11.0993C47.0735 12.8425 47.8621 13.5397 49.846 13.5397C50.1946 13.5397 50.5267 13.4982 50.8172 13.4484V11.9626C50.5682 11.9875 50.4104 12.0041 50.1365 12.0041C49.2483 12.0041 48.8582 11.589 48.8582 10.6428V5.99432H50.8172V4.49188H48.8582V2.20086H47.0735Z" fill="white"/>
<path d="M55.871 13.6642C58.5107 13.6642 60.1293 11.8962 60.1293 8.966C60.1293 6.05242 58.5024 4.27606 55.871 4.27606C53.2314 4.27606 51.6044 6.05242 51.6044 8.966C51.6044 11.8962 53.2231 13.6642 55.871 13.6642ZM55.871 12.0788C54.3188 12.0788 53.4472 10.9416 53.4472 8.966C53.4472 7.00701 54.3188 5.8615 55.871 5.8615C57.415 5.8615 58.2949 7.00701 58.2949 8.966C58.2949 10.9333 57.415 12.0788 55.871 12.0788Z" fill="white"/>
<path d="M61.5142 13.4899H63.2989V8.15252C63.2989 6.8825 64.2535 6.02752 65.6065 6.02752C65.922 6.02752 66.4532 6.08563 66.6026 6.13543V4.37566C66.4117 4.32586 66.0714 4.30096 65.8057 4.30096C64.627 4.30096 63.6226 4.94842 63.3653 5.8366H63.2325V4.45037H61.5142V13.4899Z" fill="white"/>
<path d="M71.0339 5.7951C72.3537 5.7951 73.217 6.71649 73.2585 8.13592H68.6931C68.7927 6.72479 69.7141 5.7951 71.0339 5.7951ZM73.2502 11.0495C72.9182 11.7551 72.1794 12.1452 71.1003 12.1452C69.6726 12.1452 68.7512 11.1408 68.6931 9.55535V9.45574H75.0764V8.83318C75.0764 5.99432 73.5573 4.27606 71.0422 4.27606C68.4939 4.27606 66.8752 6.11053 66.8752 8.9992C66.8752 11.8879 68.4607 13.6642 71.0505 13.6642C73.1174 13.6642 74.5617 12.6681 74.9685 11.0495H73.2502Z" fill="white"/>
<path d="M35.3699 10.1518C35.5076 12.3715 37.3574 13.791 40.1105 13.791C43.0529 13.791 44.894 12.3026 44.894 9.92807C44.894 8.0611 43.8444 7.02868 41.2978 6.43504L39.9298 6.0995C38.3124 5.72095 37.6585 5.21334 37.6585 4.32718C37.6585 3.20872 38.6737 2.47742 40.1965 2.47742C41.6419 2.47742 42.6399 3.19151 42.8206 4.33578H44.6962C44.5843 2.24513 42.7432 0.773926 40.2223 0.773926C37.5122 0.773926 35.7055 2.24513 35.7055 4.45623C35.7055 6.28018 36.7293 7.36422 38.9748 7.88903L40.5751 8.27619C42.2183 8.66335 42.941 9.23118 42.941 10.1776C42.941 11.2788 41.8054 12.0789 40.2567 12.0789C38.5963 12.0789 37.4434 11.3304 37.2799 10.1518H35.3699Z" fill="white"/>
<path d="M16.8826 4.30096C15.6541 4.30096 14.5916 4.91522 14.0437 5.94451H13.9109V4.45037H12.1927V16.4948H13.9773V12.1203H14.1185C14.5916 13.0749 15.6126 13.6393 16.8992 13.6393C19.1819 13.6393 20.6346 11.8381 20.6346 8.966C20.6346 6.09393 19.1819 4.30096 16.8826 4.30096ZM16.3763 12.0373C14.8821 12.0373 13.9441 10.8586 13.9441 8.9743C13.9441 7.08172 14.8821 5.90301 16.3846 5.90301C17.8953 5.90301 18.8001 7.05682 18.8001 8.966C18.8001 10.8835 17.8953 12.0373 16.3763 12.0373Z" fill="white"/>
<path d="M26.8794 4.30096C25.6509 4.30096 24.5884 4.91522 24.0405 5.94451H23.9077V4.45037H22.1895V16.4948H23.9741V12.1203H24.1153C24.5884 13.0749 25.6094 13.6393 26.896 13.6393C29.1787 13.6393 30.6314 11.8381 30.6314 8.966C30.6314 6.09393 29.1787 4.30096 26.8794 4.30096ZM26.3731 12.0373C24.8789 12.0373 23.9409 10.8586 23.9409 8.9743C23.9409 7.08172 24.8789 5.90301 26.3814 5.90301C27.8921 5.90301 28.7969 7.05682 28.7969 8.966C28.7969 10.8835 27.8921 12.0373 26.3731 12.0373Z" fill="white"/>
<path d="M8.99067 13.4899H11.0383L6.55588 1.07505H4.48243L0 13.4899H1.97881L3.12308 10.1948H7.85501L8.99067 13.4899ZM5.42022 3.32917H5.56647L7.36461 8.57731H3.61348L5.42022 3.32917Z" fill="white"/>
</svg>
