<svg width="85" height="18" viewBox="0 0 85 18" fill="none" xmlns="http://www.w3.org/2000/svg">
<path d="M27.137 4.75087C24.785 4.75087 22.868 6.53988 22.868 9.00388C22.868 11.4529 24.785 13.2569 27.137 13.2569C29.49 13.2569 31.407 11.4529 31.407 9.00388C31.406 6.53988 29.489 4.75087 27.137 4.75087ZM27.137 11.5829C25.848 11.5829 24.737 10.5199 24.737 9.00488C24.737 7.47388 25.849 6.42687 27.137 6.42687C28.426 6.42687 29.537 7.47388 29.537 9.00488C29.537 10.5189 28.426 11.5829 27.137 11.5829ZM17.823 4.75087C15.471 4.75087 13.554 6.53988 13.554 9.00388C13.554 11.4529 15.471 13.2569 17.823 13.2569C20.176 13.2569 22.093 11.4529 22.093 9.00388C22.093 6.53988 20.176 4.75087 17.823 4.75087ZM17.823 11.5829C16.534 11.5829 15.423 10.5199 15.423 9.00488C15.423 7.47388 16.535 6.42687 17.823 6.42687C19.112 6.42687 20.223 7.47388 20.223 9.00488C20.224 10.5189 19.112 11.5829 17.823 11.5829ZM6.74497 6.05687V7.86088H11.063C10.934 8.87588 10.596 9.61687 10.08 10.1319C9.45197 10.7599 8.46897 11.4529 6.74497 11.4529C4.08697 11.4529 2.00897 9.30988 2.00897 6.65188C2.00897 3.99388 4.08697 1.85087 6.74497 1.85087C8.17897 1.85087 9.22597 2.41487 9.99897 3.13987L11.272 1.86688C10.192 0.835876 8.75897 0.0468759 6.74497 0.0468759C3.10397 0.0468759 0.0429686 3.01088 0.0429686 6.65188C0.0429686 10.2929 3.10397 13.2569 6.74497 13.2569C8.70997 13.2569 10.193 12.6119 11.352 11.4039C12.544 10.2119 12.915 8.53587 12.915 7.18287C12.915 6.76487 12.883 6.37787 12.818 6.05587H6.74497V6.05687ZM52.053 7.45788C51.699 6.50788 50.619 4.75087 48.412 4.75087C46.221 4.75087 44.4 6.47488 44.4 9.00388C44.4 11.3879 46.205 13.2569 48.621 13.2569C50.57 13.2569 51.698 12.0649 52.166 11.3719L50.716 10.4049C50.233 11.1139 49.572 11.5809 48.621 11.5809C47.671 11.5809 46.994 11.1459 46.559 10.2919L52.246 7.93987L52.053 7.45788ZM46.253 8.87587C46.205 7.23187 47.526 6.39488 48.477 6.39488C49.218 6.39488 49.846 6.76588 50.056 7.29688L46.253 8.87587ZM41.63 12.9999H43.498V0.498876H41.63V12.9999ZM38.568 5.70187H38.504C38.085 5.20187 37.279 4.75087 36.265 4.75087C34.138 4.75087 32.189 6.61987 32.189 9.02087C32.189 11.4049 34.138 13.2579 36.265 13.2579C37.28 13.2579 38.085 12.8069 38.504 12.2919H38.568V12.9039C38.568 14.5309 37.698 15.4009 36.297 15.4009C35.153 15.4009 34.444 14.5799 34.154 13.8869L32.527 14.5639C32.994 15.6909 34.234 17.0769 36.297 17.0769C38.488 17.0769 40.341 15.7879 40.341 12.6459V5.00987H38.569V5.70187H38.568ZM36.426 11.5829C35.137 11.5829 34.058 10.5029 34.058 9.02087C34.058 7.52187 35.137 6.42687 36.426 6.42687C37.698 6.42687 38.697 7.52187 38.697 9.02087C38.697 10.5029 37.698 11.5829 36.426 11.5829ZM60.807 0.498876H56.336V12.9999H58.201V8.26388H60.806C62.874 8.26388 64.908 6.76688 64.908 4.38188C64.908 1.99688 62.875 0.498876 60.807 0.498876ZM60.855 6.52387H58.201V2.23888H60.855C62.25 2.23888 63.042 3.39388 63.042 4.38188C63.042 5.34987 62.25 6.52387 60.855 6.52387ZM72.387 4.72888C71.036 4.72888 69.637 5.32388 69.058 6.64288L70.714 7.33387C71.068 6.64287 71.728 6.41687 72.419 6.41687C73.384 6.41687 74.365 6.99588 74.381 8.02488V8.15387C74.043 7.96087 73.319 7.67188 72.435 7.67188C70.65 7.67188 68.832 8.65287 68.832 10.4859C68.832 12.1589 70.296 13.2359 71.936 13.2359C73.19 13.2359 73.882 12.6729 74.316 12.0129H74.38V12.9779H76.182V8.18488C76.183 5.96688 74.525 4.72888 72.387 4.72888ZM72.161 11.5799C71.551 11.5799 70.698 11.2739 70.698 10.5179C70.698 9.55288 71.76 9.18287 72.677 9.18287C73.496 9.18287 73.883 9.35988 74.381 9.60088C74.236 10.7599 73.239 11.5799 72.161 11.5799ZM82.744 5.00187L80.605 10.4219H80.541L78.321 5.00187H76.311L79.64 12.5769L77.742 16.7909H79.688L84.819 5.00187H82.744ZM65.938 12.9999H67.803V0.498876H65.938V12.9999Z" fill="white"/>
</svg>
