<svg width="33" height="32" viewBox="0 0 33 32" fill="none" xmlns="http://www.w3.org/2000/svg">
<path d="M5.7925 17.2925C5.60532 17.1051 5.50012 16.8511 5.5 16.5863V5H17.0863C17.3511 5.00012 17.6051 5.10532 17.7925 5.2925L30.2075 17.7075C30.3949 17.895 30.5002 18.1493 30.5002 18.4144C30.5002 18.6795 30.3949 18.9337 30.2075 19.1213L19.625 29.7075C19.4375 29.8949 19.1832 30.0002 18.9181 30.0002C18.653 30.0002 18.3988 29.8949 18.2113 29.7075L5.7925 17.2925Z" stroke="white" stroke-width="2.5" stroke-linecap="round" stroke-linejoin="round"/>
<path d="M13 15C14.3807 15 15.5 13.8807 15.5 12.5C15.5 11.1193 14.3807 10 13 10C11.6193 10 10.5 11.1193 10.5 12.5C10.5 13.8807 11.6193 15 13 15Z" fill="white"/>
</svg>
