<svg width="24" height="24" viewBox="0 0 24 24" fill="none" xmlns="http://www.w3.org/2000/svg">
<path fill-rule="evenodd" clip-rule="evenodd" d="M7.3125 4.5C6.16875 4.5 5.07185 4.95435 4.2631 5.7631C3.45435 6.57185 3 7.66875 3 8.8125C3 10.1607 3.53213 11.5042 4.39624 12.7921C5.25918 14.0782 6.42391 15.2645 7.61264 16.2817C8.79843 17.2965 9.98789 18.126 10.8827 18.7025C11.3294 18.9903 11.7008 19.2138 11.9592 19.3646C11.9731 19.3728 11.9867 19.3807 12 19.3884C12.0133 19.3807 12.0269 19.3728 12.0408 19.3646C12.2992 19.2138 12.6706 18.9903 13.1173 18.7025C14.0121 18.126 15.2016 17.2965 16.3874 16.2817C17.5761 15.2645 18.7408 14.0782 19.6038 12.7921C20.4679 11.5042 21 10.1607 21 8.8125C21 7.66875 20.5456 6.57185 19.7369 5.7631C18.9281 4.95435 17.8312 4.5 16.6875 4.5C14.8465 4.5 13.3242 5.49471 12.6941 7.03413C12.5787 7.31591 12.3045 7.5 12 7.5C11.6955 7.5 11.4213 7.31591 11.3059 7.03413C10.6758 5.49471 9.15347 4.5 7.3125 4.5ZM12 20.25C11.6444 20.9104 11.6442 20.9102 11.644 20.9101L11.6433 20.9098L11.6414 20.9087L11.6348 20.9051L11.6112 20.8923C11.591 20.8812 11.5618 20.865 11.5242 20.844C11.4491 20.802 11.3404 20.7403 11.2029 20.66C10.9281 20.4996 10.5378 20.2646 10.0704 19.9635C9.13711 19.3623 7.88907 18.4926 6.63736 17.4214C5.38859 16.3527 4.11582 15.0663 3.15064 13.6278C2.18662 12.1911 1.5 10.558 1.5 8.8125C1.5 7.27093 2.11239 5.7925 3.20244 4.70244C4.2925 3.61239 5.77093 3 7.3125 3C9.21276 3 10.9312 3.82707 12 5.24418C13.0688 3.82707 14.7872 3 16.6875 3C18.2291 3 19.7075 3.61239 20.7976 4.70244C21.8876 5.7925 22.5 7.27093 22.5 8.8125C22.5 10.558 21.8134 12.1911 20.8494 13.6278C19.8842 15.0663 18.6114 16.3527 17.3626 17.4214C16.1109 18.4926 14.8629 19.3623 13.9296 19.9635C13.4622 20.2646 13.0719 20.4996 12.7971 20.66C12.6596 20.7403 12.5509 20.802 12.4758 20.844C12.4382 20.865 12.409 20.8812 12.3888 20.8923L12.3652 20.9051L12.3586 20.9087L12.3567 20.9098L12.356 20.9101C12.3558 20.9102 12.3556 20.9104 12 20.25ZM12 20.25L12.3556 20.9104C12.1336 21.0299 11.8664 21.0299 11.6444 20.9104L12 20.25Z" fill="#FF8A00"/>
</svg>
