<svg width="33" height="33" viewBox="0 0 33 33" fill="none" xmlns="http://www.w3.org/2000/svg">
<path d="M22.6539 3.16675H10.3462C8.44274 3.16878 6.61779 3.92585 5.27182 5.27182C3.92585 6.61779 3.16878 8.44274 3.16675 10.3462V22.6539C3.16878 24.5574 3.92585 26.3824 5.27182 27.7283C6.61779 29.0743 8.44274 29.8314 10.3462 29.8334H22.6539C24.5574 29.8314 26.3824 29.0743 27.7283 27.7283C29.0743 26.3824 29.8314 24.5574 29.8334 22.6539V10.3462C29.8314 8.44274 29.0743 6.61779 27.7283 5.27182C26.3824 3.92585 24.5574 3.16878 22.6539 3.16675ZM16.5001 22.6539C15.283 22.6539 14.0932 22.293 13.0812 21.6168C12.0692 20.9406 11.2804 19.9795 10.8147 18.8551C10.3489 17.7306 10.227 16.4933 10.4645 15.2995C10.7019 14.1058 11.288 13.0093 12.1487 12.1487C13.0093 11.288 14.1058 10.7019 15.2995 10.4645C16.4933 10.227 17.7306 10.3489 18.8551 10.8147C19.9795 11.2804 20.9406 12.0692 21.6168 13.0812C22.293 14.0932 22.6539 15.283 22.6539 16.5001C22.6522 18.1317 22.0033 19.6959 20.8496 20.8496C19.6959 22.0033 18.1317 22.6522 16.5001 22.6539ZM24.1924 10.3462C23.8881 10.3462 23.5907 10.256 23.3377 10.087C23.0847 9.91791 22.8875 9.67763 22.771 9.39652C22.6546 9.1154 22.6241 8.80607 22.6835 8.50763C22.7429 8.2092 22.8894 7.93507 23.1045 7.71992C23.3197 7.50476 23.5938 7.35824 23.8923 7.29887C24.1907 7.23951 24.5 7.26998 24.7811 7.38642C25.0623 7.50286 25.3025 7.70005 25.4716 7.95305C25.6406 8.20605 25.7309 8.5035 25.7309 8.80777C25.7309 9.2158 25.5688 9.60711 25.2802 9.89563C24.9917 10.1841 24.6004 10.3462 24.1924 10.3462ZM20.6026 16.5001C20.6026 17.3115 20.362 18.1047 19.9112 18.7793C19.4604 19.454 18.8197 19.9798 18.0701 20.2904C17.3204 20.6009 16.4955 20.6821 15.6997 20.5238C14.9039 20.3655 14.1729 19.9748 13.5991 19.401C13.0254 18.8273 12.6346 18.0963 12.4763 17.3005C12.318 16.5046 12.3993 15.6797 12.7098 14.9301C13.0203 14.1805 13.5462 13.5397 14.2208 13.0889C14.8955 12.6381 15.6887 12.3975 16.5001 12.3975C17.5882 12.3975 18.6317 12.8298 19.401 13.5991C20.1704 14.3685 20.6026 15.412 20.6026 16.5001Z" fill="#34398B"/>
</svg>
