<svg width="33" height="33" viewBox="0 0 33 33" fill="none" xmlns="http://www.w3.org/2000/svg">
<path fill-rule="evenodd" clip-rule="evenodd" d="M7.3125 13.5C6.16875 13.5 5.07185 13.9544 4.2631 14.7631C3.45435 15.5719 3 16.6688 3 17.8125C3 19.1607 3.53213 20.5042 4.39624 21.7921C5.25918 23.0782 6.42391 24.2645 7.61264 25.2817C8.79843 26.2965 9.98789 27.126 10.8827 27.7025C11.3294 27.9903 11.7008 28.2138 11.9592 28.3646C11.9731 28.3728 11.9867 28.3807 12 28.3884C12.0133 28.3807 12.0269 28.3728 12.0408 28.3646C12.2992 28.2138 12.6706 27.9903 13.1173 27.7025C14.0121 27.126 15.2016 26.2965 16.3874 25.2817C17.5761 24.2645 18.7408 23.0782 19.6038 21.7921C20.4679 20.5042 21 19.1607 21 17.8125C21 16.6688 20.5456 15.5719 19.7369 14.7631C18.9281 13.9544 17.8312 13.5 16.6875 13.5C14.8465 13.5 13.3242 14.4947 12.6941 16.0341C12.5787 16.3159 12.3045 16.5 12 16.5C11.6955 16.5 11.4213 16.3159 11.3059 16.0341C10.6758 14.4947 9.15347 13.5 7.3125 13.5ZM12 29.25C11.6444 29.9104 11.6442 29.9102 11.644 29.9101L11.6433 29.9098L11.6414 29.9087L11.6348 29.9051L11.6112 29.8923C11.591 29.8812 11.5618 29.865 11.5242 29.844C11.4491 29.802 11.3404 29.7403 11.2029 29.66C10.9281 29.4996 10.5378 29.2646 10.0704 28.9635C9.13711 28.3623 7.88907 27.4926 6.63736 26.4214C5.38859 25.3527 4.11582 24.0663 3.15064 22.6278C2.18662 21.1911 1.5 19.558 1.5 17.8125C1.5 16.2709 2.11239 14.7925 3.20244 13.7024C4.2925 12.6124 5.77093 12 7.3125 12C9.21276 12 10.9312 12.8271 12 14.2442C13.0688 12.8271 14.7872 12 16.6875 12C18.2291 12 19.7075 12.6124 20.7976 13.7024C21.8876 14.7925 22.5 16.2709 22.5 17.8125C22.5 19.558 21.8134 21.1911 20.8494 22.6278C19.8842 24.0663 18.6114 25.3527 17.3626 26.4214C16.1109 27.4926 14.8629 28.3623 13.9296 28.9635C13.4622 29.2646 13.0719 29.4996 12.7971 29.66C12.6596 29.7403 12.5509 29.802 12.4758 29.844C12.4382 29.865 12.409 29.8812 12.3888 29.8923L12.3652 29.9051L12.3586 29.9087L12.3567 29.9098L12.356 29.9101C12.3558 29.9102 12.3556 29.9104 12 29.25ZM12 29.25L12.3556 29.9104C12.1336 30.0299 11.8664 30.0299 11.6444 29.9104L12 29.25Z" fill="#FF8A00"/>
<g clip-path="url(#clip0_3566_9496)">
<rect x="15" width="18" height="18" rx="9" fill="#FF8A00"/>
<path d="M24.354 14.14C23.7007 14.14 23.136 14.0607 22.66 13.902C22.184 13.7433 21.7873 13.538 21.47 13.286C21.162 13.0247 20.9287 12.7447 20.77 12.446C20.6113 12.138 20.5273 11.8347 20.518 11.536C20.518 11.452 20.546 11.3867 20.602 11.34C20.6673 11.284 20.742 11.256 20.826 11.256H22.086C22.1793 11.256 22.2587 11.2747 22.324 11.312C22.3893 11.3493 22.4453 11.424 22.492 11.536C22.576 11.788 22.7113 11.9887 22.898 12.138C23.094 12.2873 23.318 12.3947 23.57 12.46C23.822 12.516 24.088 12.544 24.368 12.544C24.928 12.544 25.3713 12.4133 25.698 12.152C26.034 11.8813 26.202 11.4987 26.202 11.004C26.202 10.5093 26.048 10.1547 25.74 9.94C25.432 9.716 25.0027 9.604 24.452 9.604H23.01C22.9073 9.604 22.8233 9.576 22.758 9.52C22.6927 9.45467 22.66 9.37067 22.66 9.268V8.68C22.66 8.58667 22.6787 8.50733 22.716 8.442C22.7627 8.36733 22.8093 8.30667 22.856 8.26L25.362 5.81H21.358C21.2553 5.81 21.1713 5.77733 21.106 5.712C21.05 5.64667 21.022 5.56733 21.022 5.474V4.55C21.022 4.44733 21.05 4.36333 21.106 4.298C21.1713 4.23267 21.2553 4.2 21.358 4.2H27.364C27.4667 4.2 27.5507 4.23267 27.616 4.298C27.6813 4.36333 27.714 4.44733 27.714 4.55V5.39C27.714 5.474 27.6953 5.54867 27.658 5.614C27.6207 5.67933 27.5787 5.73533 27.532 5.782L25.11 8.274L25.278 8.288C25.8473 8.33467 26.3513 8.46533 26.79 8.68C27.238 8.88533 27.5833 9.18867 27.826 9.59C28.078 9.99133 28.204 10.4953 28.204 11.102C28.204 11.7367 28.036 12.2827 27.7 12.74C27.3733 13.188 26.9207 13.5333 26.342 13.776C25.7633 14.0187 25.1007 14.14 24.354 14.14Z" fill="white"/>
</g>
<defs>
<clipPath id="clip0_3566_9496">
<rect x="15" width="18" height="18" rx="9" fill="white"/>
</clipPath>
</defs>
</svg>
