<svg width="33" height="33" viewBox="0 0 33 33" fill="none" xmlns="http://www.w3.org/2000/svg">
<path fill-rule="evenodd" clip-rule="evenodd" d="M0.75 11.25C0.75 10.8358 1.08579 10.5 1.5 10.5H3.19219H3.1923C3.54358 10.5001 3.8837 10.6234 4.15336 10.8485C4.423 11.0736 4.60509 11.3862 4.6679 11.7318L4.66792 11.7319L5.12581 14.25H20.25C20.4724 14.25 20.6833 14.3487 20.8258 14.5195C20.9683 14.6902 21.0277 14.9154 20.9879 15.1342L19.8479 21.4022C19.7537 21.9206 19.4806 22.3896 19.0761 22.7272C18.6716 23.0649 18.1614 23.2499 17.6345 23.25H17.6344H6.76235L7.05946 24.8839L7.05948 24.8841C7.09088 25.0569 7.18193 25.2132 7.31676 25.3257C7.45157 25.4383 7.62159 25.4999 7.79719 25.5H7.7973H7.875H16.875C18.3247 25.5 19.5 26.6753 19.5 28.125C19.5 29.5747 18.3247 30.75 16.875 30.75C15.4253 30.75 14.25 29.5747 14.25 28.125C14.25 27.7224 14.3406 27.341 14.5026 27H10.2474C10.4094 27.341 10.5 27.7224 10.5 28.125C10.5 29.5747 9.32475 30.75 7.875 30.75C6.42525 30.75 5.25 29.5747 5.25 28.125C5.25 27.3681 5.57034 26.686 6.08284 26.207C5.82805 25.9071 5.65482 25.5438 5.58366 25.1523L5.58364 25.1522L3.76318 15.1407L3.76112 15.1294L3.1921 12.0001L3.19208 12H1.5C1.08579 12 0.75 11.6642 0.75 11.25ZM6.48959 21.75L5.39857 15.75H6.76353L7.94152 21.75H6.48959ZM8.96061 21.75L7.78262 15.75H9.14405L10.322 21.75H8.96061ZM11.3411 21.75H12.7026L11.5246 15.75H10.1631L11.3411 21.75ZM15.0831 21.75H13.7217L12.5437 15.75H13.9051L15.0831 21.75ZM16.1022 21.75H17.4636L16.2856 15.75H14.9242L16.1022 21.75ZM18.3669 21.16C18.3688 21.1514 18.3705 21.1428 18.3721 21.1341L18.3721 21.1339L19.3513 15.75H17.3047L18.3669 21.16ZM16.875 27C16.2537 27 15.75 27.5037 15.75 28.125C15.75 28.7463 16.2537 29.25 16.875 29.25C17.4963 29.25 18 28.7463 18 28.125C18 27.5037 17.4963 27 16.875 27ZM6.75 28.125C6.75 27.5037 7.25368 27 7.875 27C8.49632 27 9 27.5037 9 28.125C9 28.7463 8.49632 29.25 7.875 29.25C7.25368 29.25 6.75 28.7463 6.75 28.125Z" fill="#097944"/>
<g clip-path="url(#clip0_3566_9505)">
<rect x="15" width="18" height="18" rx="9" fill="#FF8A00"/>
<path d="M24.354 14.14C23.7007 14.14 23.136 14.0607 22.66 13.902C22.184 13.7433 21.7873 13.538 21.47 13.286C21.162 13.0247 20.9287 12.7447 20.77 12.446C20.6113 12.138 20.5273 11.8347 20.518 11.536C20.518 11.452 20.546 11.3867 20.602 11.34C20.6673 11.284 20.742 11.256 20.826 11.256H22.086C22.1793 11.256 22.2587 11.2747 22.324 11.312C22.3893 11.3493 22.4453 11.424 22.492 11.536C22.576 11.788 22.7113 11.9887 22.898 12.138C23.094 12.2873 23.318 12.3947 23.57 12.46C23.822 12.516 24.088 12.544 24.368 12.544C24.928 12.544 25.3713 12.4133 25.698 12.152C26.034 11.8813 26.202 11.4987 26.202 11.004C26.202 10.5093 26.048 10.1547 25.74 9.94C25.432 9.716 25.0027 9.604 24.452 9.604H23.01C22.9073 9.604 22.8233 9.576 22.758 9.52C22.6927 9.45467 22.66 9.37067 22.66 9.268V8.68C22.66 8.58667 22.6787 8.50733 22.716 8.442C22.7627 8.36733 22.8093 8.30667 22.856 8.26L25.362 5.81H21.358C21.2553 5.81 21.1713 5.77733 21.106 5.712C21.05 5.64667 21.022 5.56733 21.022 5.474V4.55C21.022 4.44733 21.05 4.36333 21.106 4.298C21.1713 4.23267 21.2553 4.2 21.358 4.2H27.364C27.4667 4.2 27.5507 4.23267 27.616 4.298C27.6813 4.36333 27.714 4.44733 27.714 4.55V5.39C27.714 5.474 27.6953 5.54867 27.658 5.614C27.6207 5.67933 27.5787 5.73533 27.532 5.782L25.11 8.274L25.278 8.288C25.8473 8.33467 26.3513 8.46533 26.79 8.68C27.238 8.88533 27.5833 9.18867 27.826 9.59C28.078 9.99133 28.204 10.4953 28.204 11.102C28.204 11.7367 28.036 12.2827 27.7 12.74C27.3733 13.188 26.9207 13.5333 26.342 13.776C25.7633 14.0187 25.1007 14.14 24.354 14.14Z" fill="white"/>
</g>
<defs>
<clipPath id="clip0_3566_9505">
<rect x="15" width="18" height="18" rx="9" fill="white"/>
</clipPath>
</defs>
</svg>
