<svg width="24" height="24" viewBox="0 0 24 24" fill="none" xmlns="http://www.w3.org/2000/svg">
<path fill-rule="evenodd" clip-rule="evenodd" d="M11.28 1.68581C11.5008 1.56502 11.7484 1.50171 12 1.50171C12.2516 1.50171 12.4992 1.56502 12.72 1.68581L12.7202 1.6859L20.97 6.20268L20.9702 6.20278C21.2057 6.33169 21.4023 6.52145 21.5395 6.75227C21.5663 6.79745 21.5907 6.84389 21.6126 6.89136C21.617 6.90071 21.6212 6.91011 21.6252 6.91955C21.7068 7.10688 21.7495 7.30954 21.75 7.51518L21.75 7.51688L21.75 16.483V16.4831C21.75 16.7523 21.6777 17.0165 21.5404 17.248C21.4032 17.4796 21.2062 17.67 20.97 17.7992L12.7202 22.316L12.72 22.3161C12.4992 22.4369 12.2516 22.5002 12 22.5002C11.7484 22.5002 11.5008 22.4369 11.28 22.3161L11.2798 22.316L3.03 17.7992L3.02982 17.7991C2.7943 17.6702 2.59769 17.4804 2.46052 17.2496C2.32331 17.0188 2.25061 16.7553 2.25 16.4867L2.25 16.485V7.51688L2.25 7.51518C2.25045 7.31661 2.29032 7.12081 2.36652 6.93893C2.37525 6.91661 2.38513 6.89451 2.39616 6.87272C2.41573 6.83172 2.43719 6.79152 2.46052 6.75227C2.59769 6.52145 2.7943 6.33169 3.02982 6.20278L3.03 6.20268L7.25046 3.89198C7.27361 3.87762 7.29746 3.86457 7.32191 3.85286L11.2798 1.6859L11.28 1.68581ZM7.64759 5.38465L4.46943 7.1247L11.9998 11.2463L15.1784 9.50652L7.64759 5.38465ZM16.7405 8.65153L9.20946 4.52953L12 3.00171L19.5304 7.12459L16.7405 8.65153ZM15.7502 10.9035V14.25C15.7502 14.6642 16.086 15 16.5002 15C16.9144 15 17.2502 14.6642 17.2502 14.25V10.0825L20.25 8.4407L20.25 16.4831V16.4833L20.2498 16.4834L12.75 20.5896V12.5456L15.7502 10.9035ZM3.75 16.4833V8.44091L11.25 12.5458V20.5896L3.75018 16.4834L3.75 16.4833Z" fill="#111111"/>
</svg>
