<svg width="20" height="20" viewBox="0 0 20 20" fill="none" xmlns="http://www.w3.org/2000/svg">
<path fill-rule="evenodd" clip-rule="evenodd" d="M5.3879 3.78721C5.77136 3.51948 6.13639 3.332 6.40021 3.26724L7.97648 6.78831L6.40413 8.65791C6.38579 8.67972 6.3687 8.70256 6.35295 8.72632C6.22204 8.92386 6.14462 9.15199 6.12828 9.38841C6.11193 9.62484 6.15721 9.86145 6.2597 10.0751L6.25968 10.0751L6.26204 10.08C6.98298 11.5559 8.4738 13.0276 9.94996 13.7396L9.95399 13.7415C10.1689 13.8436 10.4068 13.8879 10.6441 13.8701C10.8814 13.8522 11.11 13.7727 11.3072 13.6396C11.3302 13.624 11.3523 13.6073 11.3734 13.5893L13.2144 12.0234L16.7367 13.6015C16.621 14.289 16.271 14.9167 15.7446 15.377C15.1926 15.8598 14.4839 16.1256 13.7506 16.125H13.75C11.131 16.125 8.61925 15.0846 6.76732 13.2327C4.9154 11.3808 3.875 8.86903 3.875 6.25001L3.875 6.24944C3.87469 5.84346 3.9144 5.60529 3.9996 5.38717C4.09038 5.15479 4.25384 4.89085 4.58972 4.46341C4.65595 4.37912 4.96157 4.08489 5.3879 3.78721ZM7.16209 1.93505C6.90493 1.78633 6.60652 1.72489 6.31153 1.75994L6.31152 1.75986L6.30053 1.76133C5.66022 1.84701 5.00241 2.22693 4.52919 2.55733C4.04809 2.89324 3.60724 3.28597 3.41028 3.53662C3.04956 3.99568 2.77517 4.39917 2.60242 4.84137C2.42411 5.29784 2.37461 5.74141 2.375 6.25059C2.375 6.2504 2.375 6.25021 2.375 6.25001H3.125L2.375 6.25059C2.37515 9.26722 3.57357 12.1603 5.70666 14.2934C7.83976 16.4264 10.7328 17.6249 13.7494 17.625H13.75V16.875L13.7494 17.625C14.8464 17.6259 15.9063 17.2283 16.732 16.5062C17.5578 15.7841 18.0932 14.7867 18.2387 13.6995L18.2388 13.6995L18.2401 13.6885C18.2751 13.3935 18.2137 13.0951 18.065 12.8379C17.9175 12.583 17.6922 12.3822 17.4222 12.265L13.7426 10.6164L13.7426 10.6163L13.732 10.6117C13.5219 10.5214 13.2925 10.485 13.0647 10.5057C12.8369 10.5264 12.6179 10.6036 12.4275 10.7303C12.403 10.7466 12.3795 10.7643 12.357 10.7834L10.5184 12.3474C9.39446 11.7772 8.22592 10.6215 7.65166 9.50501L9.22165 7.63821C9.24093 7.61529 9.25882 7.59123 9.27522 7.56617C9.39934 7.3765 9.47465 7.1591 9.49444 6.9333C9.51423 6.7075 9.47789 6.48031 9.38866 6.27195L9.38875 6.27191L9.38376 6.26075L7.73507 2.57793C7.61787 2.30787 7.41705 2.08249 7.16209 1.93505ZM11.7747 2.93402C11.8802 2.53347 12.2904 2.29426 12.691 2.39974C13.8705 2.71036 14.9465 3.32849 15.809 4.19099C16.6715 5.0535 17.2897 6.12947 17.6003 7.30902C17.7058 7.70958 17.4665 8.11981 17.066 8.22529C16.6654 8.33077 16.2552 8.09156 16.1497 7.69101C15.9067 6.7682 15.4231 5.92642 14.7484 5.25165C14.0736 4.57688 13.2318 4.0933 12.309 3.85029C11.9085 3.74481 11.6692 3.33458 11.7747 2.93402ZM11.1505 5.43117C11.2575 5.03103 11.6687 4.79344 12.0688 4.9005C13.6185 5.31512 14.6849 6.38151 15.0995 7.93117C15.2066 8.33131 14.969 8.74247 14.5688 8.84953C14.1687 8.95659 13.7575 8.719 13.6505 8.31886C13.3745 7.28727 12.7127 6.62554 11.6812 6.34953C11.281 6.24247 11.0434 5.83131 11.1505 5.43117Z" fill="white"/>
</svg>
