<svg width="24" height="24" viewBox="0 0 24 24" fill="none" xmlns="http://www.w3.org/2000/svg">
<path d="M24.0004 18.591H20.4111L18.9899 15.3624H12.3898L11.0222 18.591H7.49805L13.8875 4.40915H17.4079L24.0004 18.591H24.0004ZM17.9097 12.9658L15.6228 7.71693L13.4011 12.9658H17.9097Z" fill="#264796"/>
<path fill-rule="evenodd" clip-rule="evenodd" d="M7.51572 4.48264C7.78521 4.48242 8.01579 6.4418 8.10297 9.17709C8.89456 7.57177 9.53726 6.50662 9.70844 6.57282C9.71911 6.57696 9.72793 6.58558 9.73458 6.59835L8.50472 9.32805C8.22456 9.60112 7.99785 9.90399 7.7989 10.2709C7.8846 10.2876 7.96776 10.312 8.04719 10.3434L7.98252 10.4869C7.36155 10.2427 6.64661 10.5137 6.38301 11.0949C6.11893 11.6776 6.40853 12.3514 7.03012 12.6008L6.96507 12.7453C6.88524 12.7132 6.80905 12.674 6.7375 12.6284C6.59293 13.0215 6.5176 13.3884 6.50305 13.7708L5.29894 16.4435C5.23258 16.1951 5.57222 15.0874 6.15861 13.5867C4.03651 15.4657 2.39747 16.7003 2.2068 16.5219C2.01606 16.3433 3.33077 14.8052 5.33221 12.8132C3.56189 13.4238 2.30411 13.7506 2.23309 13.5905C2.16224 13.4302 3.29743 12.8261 5.0088 12.0818C2.09085 12.004 0.00023365 11.7907 1.83786e-08 11.538C-0.000226312 11.2855 2.09 11.0693 5.00788 10.9875C3.2955 10.2456 2.15931 9.64302 2.22992 9.48264C2.30078 9.32239 3.55895 9.64745 5.33011 10.2556C3.32566 8.26639 2.00862 6.72987 2.19898 6.55121C2.38941 6.37241 4.0304 7.6049 6.15536 9.48112C5.50407 7.82156 5.15531 6.64236 5.32617 6.5758C5.49711 6.50938 6.14167 7.57358 6.93558 9.17789C7.01865 6.4426 7.24615 4.48285 7.51571 4.48264H7.51572ZM5.991 9.62701C6.09712 9.99666 6.25917 10.3363 6.49525 10.6845C6.61274 10.5594 6.75537 10.4552 6.91681 10.3794C6.63154 10.0674 6.33429 9.82583 5.991 9.62701ZM6.38 10.8247C5.9654 10.6913 5.57781 10.6241 5.17202 10.6154C5.46015 10.8842 5.78061 11.1005 6.17138 11.2887C6.20913 11.1212 6.28083 10.9641 6.38 10.8247V10.8247ZM6.14463 11.4622C5.71201 11.544 5.33809 11.6704 4.9802 11.8566C5.37306 11.9516 5.7667 11.9852 6.20697 11.9613C6.17959 11.8814 6.15993 11.7978 6.14919 11.7109C6.13929 11.6269 6.13805 11.5438 6.14463 11.4622ZM7.61528 10.2472C7.53445 9.83895 7.40582 9.48655 7.21515 9.14997C7.11127 9.52252 7.07135 9.89551 7.09085 10.3113C7.17423 10.2848 7.26141 10.2654 7.35159 10.2543C7.44086 10.2438 7.52896 10.2418 7.61528 10.2472ZM5.47191 13.0123C5.8623 12.9078 6.22205 12.75 6.59194 12.5209C6.4616 12.4107 6.35362 12.2764 6.27581 12.1236C5.9439 12.3983 5.68555 12.6839 5.4719 13.0123H5.47191Z" fill="#E31E24"/>
<path d="M20.7777 18.591H17.1884L15.7673 15.3624H9.1671L7.79956 18.591H4.27539L10.6649 4.40915H14.1852L20.7777 18.591H20.7777ZM14.687 12.9658L12.4001 7.71693L10.1784 12.9658H14.687Z" fill="#EF7F1A"/>
</svg>
